<?xml version="1.0" encoding="utf-8"?>
<!-- Generator: Adobe Illustrator 25.2.1, SVG Export Plug-In . SVG Version: 6.00 Build 0)  -->
<svg version="1.1" id="Warstwa_1" xmlns="http://www.w3.org/2000/svg" xmlns:xlink="http://www.w3.org/1999/xlink" x="0px" y="0px"
	 viewBox="0 0 1000 1000" style="enable-background:new 0 0 1000 1000;" xml:space="preserve">
<style type="text/css">
	.st0{display:none;fill:#AAAAAA;stroke:#1D1D1B;stroke-miterlimit:10;}
	.st1{fill:#FFFFFF;}
</style>
<rect class="st0" width="1000" height="1000"/>
<path class="st1" d="M788.07,331.64H211.93c-26.19,0-47.41-21.23-47.41-47.41v-44.57c0-26.19,21.23-47.41,47.41-47.41h576.15
	c26.19,0,47.41,21.23,47.41,47.41v44.57C835.49,310.41,814.26,331.64,788.07,331.64z"/>
<path class="st1" d="M684.05,569.7H211.93c-26.19,0-47.41-21.23-47.41-47.41v-44.57c0-26.19,21.23-47.41,47.41-47.41h472.13
	c26.19,0,47.41,21.23,47.41,47.41v44.57C731.47,548.47,710.24,569.7,684.05,569.7z"/>
<path class="st1" d="M788.07,807.77H211.93c-26.19,0-47.41-21.23-47.41-47.41v-44.57c0-26.19,21.23-47.41,47.41-47.41h576.15
	c26.19,0,47.41,21.23,47.41,47.41v44.57C835.49,786.54,814.26,807.77,788.07,807.77z"/>
</svg>
